# xmcd
#
# Track frame offsets: 
#        150
#        12764
#        27121
#        38261
#        53653
#        65117
#        75586
#        91798
#        105151
#        115005
#        124851
#        141972
#
# Disc length: 2149 seconds
#
# Revision: 2
# Processed by: cddbd v1.5.2PL0 Copyright (c) Steve Scherf et al.
# Submitted via: ExactAudioCopy v0.99pb3
#
DISCID=8508630c
DTITLE=Rhonda Vincent - Beautiful Star: A Christmas Collection
DYEAR=2006
DGENRE=Bluegrass
TTITLE0=Christmas Time at Home
TTITLE1=The Christmas Song
TTITLE2=Rockin' Around the Christmas Tree
TTITLE3=Beautiful Star of Bethlehem
TTITLE4=Christmas Time's a Comin'
TTITLE5=Let It Snow
TTITLE6=Silent Night
TTITLE7=Oh Christmas Tree
TTITLE8=Winter Wonderland
TTITLE9=Jingle Bells
TTITLE10=Away in a Manger
TTITLE11=Twelve Days of Christmas
EXTD=
EXTT0=
EXTT1=
EXTT2=
EXTT3=
EXTT4=
EXTT5=
EXTT6=
EXTT7=
EXTT8=
EXTT9=
EXTT10=
EXTT11=
PLAYORDER=
